<svg width="52" height="16" viewBox="0 0 52 16" fill="none" xmlns="http://www.w3.org/2000/svg">
<path d="M11.34 7.68C12.1667 7.98667 12.8067 8.43333 13.26 9.02C13.7133 9.60667 13.94 10.3133 13.94 11.14C13.94 12.3667 13.4333 13.32 12.42 14C11.4067 14.6667 9.94 15 8.02 15H0.14V0.999999H7.62C9.48667 0.999999 10.8933 1.33333 11.84 2C12.8 2.66667 13.28 3.55333 13.28 4.66C13.28 5.31333 13.1133 5.9 12.78 6.42C12.46 6.94 11.98 7.36 11.34 7.68ZM4.78 4.3V6.38H6.98C8.00667 6.38 8.52 6.03333 8.52 5.34C8.52 4.64667 8.00667 4.3 6.98 4.3H4.78ZM7.62 11.7C8.66 11.7 9.18 11.3333 9.18 10.6C9.18 9.86667 8.66 9.5 7.62 9.5H4.78V11.7H7.62ZM22.9488 15.32C21.4421 15.32 20.0888 15.0067 18.8888 14.38C17.6888 13.7533 16.7488 12.8867 16.0688 11.78C15.3888 10.66 15.0488 9.4 15.0488 8C15.0488 6.6 15.3888 5.34667 16.0688 4.24C16.7488 3.12 17.6888 2.24667 18.8888 1.62C20.0888 0.993333 21.4421 0.68 22.9488 0.68C24.4554 0.68 25.8088 0.993333 27.0088 1.62C28.2088 2.24667 29.1488 3.12 29.8288 4.24C30.5088 5.34667 30.8488 6.6 30.8488 8C30.8488 9.4 30.5088 10.66 29.8288 11.78C29.1488 12.8867 28.2088 13.7533 27.0088 14.38C25.8088 15.0067 24.4554 15.32 22.9488 15.32ZM22.9488 11.5C23.5354 11.5 24.0621 11.36 24.5288 11.08C25.0088 10.7867 25.3888 10.38 25.6688 9.86C25.9488 9.32667 26.0888 8.70667 26.0888 8C26.0888 7.29333 25.9488 6.68 25.6688 6.16C25.3888 5.62667 25.0088 5.22 24.5288 4.94C24.0621 4.64667 23.5354 4.5 22.9488 4.5C22.3621 4.5 21.8288 4.64667 21.3488 4.94C20.8821 5.22 20.5088 5.62667 20.2288 6.16C19.9488 6.68 19.8088 7.29333 19.8088 8C19.8088 8.70667 19.9488 9.32667 20.2288 9.86C20.5088 10.38 20.8821 10.7867 21.3488 11.08C21.8288 11.36 22.3621 11.5 22.9488 11.5ZM40.9141 15L38.4941 11.26L36.1341 15H30.7541L35.8141 7.94L30.9341 0.999999H36.2341L38.6141 4.52L40.9341 0.999999H46.0141L41.1541 7.76L46.3141 15H40.9141ZM49.1884 15.2C48.4284 15.2 47.7951 14.96 47.2884 14.48C46.7951 13.9867 46.5484 13.36 46.5484 12.6C46.5484 11.84 46.7951 11.2267 47.2884 10.76C47.7951 10.28 48.4284 10.04 49.1884 10.04C49.9484 10.04 50.5751 10.28 51.0684 10.76C51.5751 11.2267 51.8284 11.84 51.8284 12.6C51.8284 13.36 51.5751 13.9867 51.0684 14.48C50.5751 14.96 49.9484 15.2 49.1884 15.2Z" fill="black"/>
</svg>
