<svg width="17" height="16" viewBox="0 0 17 16" fill="none" xmlns="http://www.w3.org/2000/svg">
<path d="M14.9829 6.76065C15.0646 7.19859 15.1092 7.65647 15.1092 8.13428C15.1092 11.8717 12.6078 14.5292 8.82984 14.5292C7.97069 14.5295 7.1199 14.3605 6.32609 14.0318C5.53228 13.7031 4.81101 13.2213 4.2035 12.6138C3.59598 12.0062 3.11412 11.285 2.78546 10.4912C2.45679 9.69736 2.28776 8.84657 2.28803 7.98741C2.28776 7.12825 2.45679 6.27746 2.78546 5.48366C3.11412 4.68985 3.59598 3.96858 4.2035 3.36106C4.81101 2.75355 5.53228 2.27169 6.32609 1.94303C7.1199 1.61436 7.97069 1.44533 8.82984 1.44559C10.5962 1.44559 12.0722 2.09552 13.2046 3.15083L11.3604 4.99495V4.9903C10.674 4.33638 9.80274 4.00078 8.82984 4.00078C6.67139 4.00078 4.91698 5.82431 4.91698 7.98343C4.91698 10.1419 6.67139 11.9694 8.82984 11.9694C10.7883 11.9694 12.1214 10.8496 12.3951 9.31186H8.82984V6.76065H14.9836H14.9829Z" fill="black"/>
</svg>
