<svg width="12" height="12" viewBox="0 0 12 12" fill="none" xmlns="http://www.w3.org/2000/svg">
<path d="M10.1525 5.62146C10.3625 5.89614 10.3625 6.26696 10.1525 6.5412C9.49103 7.40467 7.90409 9.18256 6.05133 9.18256C4.19856 9.18256 2.61162 7.40467 1.95017 6.5412C1.848 6.40968 1.79254 6.24787 1.79254 6.08133C1.79254 5.91479 1.848 5.75298 1.95017 5.62146C2.61162 4.75799 4.19856 2.9801 6.05133 2.9801C7.90409 2.9801 9.49103 4.75799 10.1525 5.62146V5.62146Z" stroke="black" stroke-width="0.66453" stroke-linecap="round" stroke-linejoin="round"/>
<path d="M6.05127 7.41032C6.78531 7.41032 7.38036 6.81526 7.38036 6.08122C7.38036 5.34718 6.78531 4.75212 6.05127 4.75212C5.31723 4.75212 4.72217 5.34718 4.72217 6.08122C4.72217 6.81526 5.31723 7.41032 6.05127 7.41032Z" stroke="black" stroke-width="0.66453" stroke-linecap="round" stroke-linejoin="round"/>
</svg>
